<?xml version="1.0" encoding="UTF-8" standalone="no"?>
<!-- Created with Inkscape (http://www.inkscape.org/) -->

<svg
   xmlns:dc="http://purl.org/dc/elements/1.1/"
   xmlns:cc="http://creativecommons.org/ns#"
   xmlns:rdf="http://www.w3.org/1999/02/22-rdf-syntax-ns#"
   xmlns:svg="http://www.w3.org/2000/svg"
   xmlns="http://www.w3.org/2000/svg"
   xmlns:sodipodi="http://sodipodi.sourceforge.net/DTD/sodipodi-0.dtd"
   xmlns:inkscape="http://www.inkscape.org/namespaces/inkscape"
   width="210mm"
   height="297mm"
   viewBox="0 0 210 297"
   version="1.1"
   id="svg8"
   inkscape:version="0.92.3 (2405546, 2018-03-11)"
   sodipodi:docname="logos.svg">
  <defs
     id="defs2" />
  <sodipodi:namedview
     id="base"
     pagecolor="#ffffff"
     bordercolor="#666666"
     borderopacity="1.0"
     inkscape:pageopacity="0.0"
     inkscape:pageshadow="2"
     inkscape:zoom="63.356767"
     inkscape:cx="314.6506"
     inkscape:cy="517.43372"
     inkscape:document-units="mm"
     inkscape:current-layer="layer1"
     showgrid="false"
     inkscape:window-width="2493"
     inkscape:window-height="1385"
     inkscape:window-x="1747"
     inkscape:window-y="27"
     inkscape:window-maximized="1" />
  <metadata
     id="metadata5">
    <rdf:RDF>
      <cc:Work
         rdf:about="">
        <dc:format>image/svg+xml</dc:format>
        <dc:type
           rdf:resource="http://purl.org/dc/dcmitype/StillImage" />
        <dc:title></dc:title>
      </cc:Work>
    </rdf:RDF>
  </metadata>
  <g
     inkscape:label="Calque 1"
     inkscape:groupmode="layer"
     id="layer1">
    <path
       style="fill:#000000;stroke-width:0.26458332"
       d="m 81.645162,159.56215 a 0.5477702,0.5477702 0 0 0 -0.531752,0.4191 0.40307617,0.40307617 0 0 1 0.381373,-0.27441 0.40307617,0.40307617 0 0 1 0.347266,0.19948 0.2487851,0.2487851 0 0 1 0.14211,-0.045 0.2487851,0.2487851 0 0 1 0.180867,0.078 0.5477702,0.5477702 0 0 0 -0.519864,-0.37724 z m 0.196887,0.34417 a 0.2487851,0.2487851 0 0 0 -0.106455,0.2036 0.2487851,0.2487851 0 0 0 0.106455,0.20464 0.40307617,0.40307617 0 0 0 0.05581,-0.20464 0.40307617,0.40307617 0 0 0 -0.05581,-0.2036 z m 0,0.40824 a 0.40307617,0.40307617 0 0 1 -0.347266,0.19844 0.40307617,0.40307617 0 0 1 -0.381373,-0.27337 0.5477702,0.5477702 0 0 0 0.531752,0.41806 0.5477702,0.5477702 0 0 0 0.52038,-0.37775 0.2487851,0.2487851 0 0 1 -0.181383,0.0791 0.2487851,0.2487851 0 0 1 -0.14211,-0.0444 z"
       id="circle3729"
       inkscape:connector-curvature="0"
       inkscape:export-xdpi="482.82907"
       inkscape:export-ydpi="482.82907" />
    <circle
       id="path3713"
       cx="84.643806"
       cy="159.77176"
       r="0.5477702"
       style="stroke-width:0.26458332" />
    <circle
       r="0.40307617"
       cy="159.77176"
       cx="84.49321"
       id="circle3717"
       style="fill:#ffffff;stroke-width:0.28892499" />
    <circle
       r="0.2675775"
       cy="159.62769"
       cx="84.897064"
       id="circle3737"
       style="fill:#ffffff;stroke-width:0.19179955" />
    <circle
       style="fill:#ffffff;stroke-width:0.11097725"
       id="path3715"
       cx="84.775955"
       cy="160.19978"
       r="0.15482317" />
  </g>
</svg>
